<mxfile host="app.diagrams.net" agent="Mozilla/5.0 (Windows NT 10.0; Win64; x64) AppleWebKit/537.36 (KHTML, like Gecko) Chrome/127.0.0.0 Safari/537.36" version="24.7.6">
  <diagram name="第 1 页" id="O3yKie8wYm_dcf342z6G">
    <mxGraphModel dx="2247" dy="1927" grid="1" gridSize="10" guides="1" tooltips="1" connect="1" arrows="1" fold="1" page="1" pageScale="1" pageWidth="827" pageHeight="1169" math="0" shadow="0">
      <root>
        <mxCell id="0" />
        <mxCell id="1" parent="0" />
        <mxCell id="PICD6bbU7p97rax8BCYg-83" value="应急广播平台" style="shape=umlLifeline;perimeter=lifelinePerimeter;whiteSpace=wrap;html=1;container=1;dropTarget=0;collapsible=0;recursiveResize=0;outlineConnect=0;portConstraint=eastwest;newEdgeStyle={&quot;curved&quot;:0,&quot;rounded&quot;:0};" vertex="1" parent="1">
          <mxGeometry x="665" y="1568" width="100" height="680" as="geometry" />
        </mxCell>
        <mxCell id="PICD6bbU7p97rax8BCYg-82" value="中转服务" style="shape=umlLifeline;perimeter=lifelinePerimeter;whiteSpace=wrap;html=1;container=1;dropTarget=0;collapsible=0;recursiveResize=0;outlineConnect=0;portConstraint=eastwest;newEdgeStyle={&quot;curved&quot;:0,&quot;rounded&quot;:0};" vertex="1" parent="1">
          <mxGeometry x="465" y="1568" width="100" height="680" as="geometry" />
        </mxCell>
        <mxCell id="PICD6bbU7p97rax8BCYg-81" value="数字文旅平台" style="shape=umlLifeline;perimeter=lifelinePerimeter;whiteSpace=wrap;html=1;container=1;dropTarget=0;collapsible=0;recursiveResize=0;outlineConnect=0;portConstraint=eastwest;newEdgeStyle={&quot;curved&quot;:0,&quot;rounded&quot;:0};" vertex="1" parent="1">
          <mxGeometry x="275" y="1568" width="100" height="680" as="geometry" />
        </mxCell>
        <mxCell id="PICD6bbU7p97rax8BCYg-80" value="数字文旅平台PC端" style="shape=umlLifeline;perimeter=lifelinePerimeter;whiteSpace=wrap;html=1;container=1;dropTarget=0;collapsible=0;recursiveResize=0;outlineConnect=0;portConstraint=eastwest;newEdgeStyle={&quot;curved&quot;:0,&quot;rounded&quot;:0};" vertex="1" parent="1">
          <mxGeometry x="85" y="1568" width="100" height="680" as="geometry" />
        </mxCell>
        <mxCell id="PICD6bbU7p97rax8BCYg-21" style="edgeStyle=orthogonalEdgeStyle;rounded=0;orthogonalLoop=1;jettySize=auto;html=1;entryX=0;entryY=0.5;entryDx=0;entryDy=0;endArrow=none;endFill=0;fontColor=#000000;" edge="1" parent="1" source="PICD6bbU7p97rax8BCYg-1" target="PICD6bbU7p97rax8BCYg-18">
          <mxGeometry relative="1" as="geometry">
            <Array as="points">
              <mxPoint y="530" />
            </Array>
          </mxGeometry>
        </mxCell>
        <mxCell id="PICD6bbU7p97rax8BCYg-1" value="&lt;font style=&quot;font-size: 16px;&quot;&gt;数字文旅平台&lt;/font&gt;&lt;br&gt;（互联网）" style="rounded=1;whiteSpace=wrap;html=1;fontColor=#000000;" vertex="1" parent="1">
          <mxGeometry x="-60" y="350" width="120" height="60" as="geometry" />
        </mxCell>
        <mxCell id="PICD6bbU7p97rax8BCYg-13" value="专网" style="edgeStyle=orthogonalEdgeStyle;rounded=0;orthogonalLoop=1;jettySize=auto;html=1;entryX=1;entryY=0.5;entryDx=0;entryDy=0;endArrow=none;endFill=0;fontColor=#000000;" edge="1" parent="1" source="PICD6bbU7p97rax8BCYg-2" target="PICD6bbU7p97rax8BCYg-11">
          <mxGeometry x="0.2353" relative="1" as="geometry">
            <Array as="points">
              <mxPoint x="550" y="530" />
            </Array>
            <mxPoint as="offset" />
          </mxGeometry>
        </mxCell>
        <mxCell id="PICD6bbU7p97rax8BCYg-2" value="&lt;font style=&quot;font-size: 16px;&quot;&gt;应急广播平台&lt;/font&gt;&lt;div&gt;（专网）&lt;/div&gt;" style="rounded=1;whiteSpace=wrap;html=1;fontColor=#000000;" vertex="1" parent="1">
          <mxGeometry x="490" y="340" width="120" height="60" as="geometry" />
        </mxCell>
        <mxCell id="PICD6bbU7p97rax8BCYg-8" style="edgeStyle=orthogonalEdgeStyle;rounded=0;orthogonalLoop=1;jettySize=auto;html=1;entryX=0.5;entryY=0;entryDx=0;entryDy=0;exitX=0.77;exitY=1;exitDx=0;exitDy=0;exitPerimeter=0;endArrow=none;endFill=0;fontColor=#000000;" edge="1" parent="1" source="PICD6bbU7p97rax8BCYg-4">
          <mxGeometry relative="1" as="geometry">
            <mxPoint x="569.61" y="340" as="targetPoint" />
            <Array as="points">
              <mxPoint x="300" y="165" />
              <mxPoint x="300" y="220" />
              <mxPoint x="550" y="220" />
              <mxPoint x="550" y="340" />
            </Array>
          </mxGeometry>
        </mxCell>
        <mxCell id="PICD6bbU7p97rax8BCYg-10" value="专网" style="edgeLabel;html=1;align=center;verticalAlign=middle;resizable=0;points=[];fontColor=#000000;" vertex="1" connectable="0" parent="PICD6bbU7p97rax8BCYg-8">
          <mxGeometry x="0.0579" relative="1" as="geometry">
            <mxPoint x="10" y="-3" as="offset" />
          </mxGeometry>
        </mxCell>
        <mxCell id="PICD6bbU7p97rax8BCYg-4" value="&lt;font style=&quot;font-size: 16px;&quot;&gt;访问终端&lt;/font&gt;" style="fontColor=#000000;verticalAlign=top;verticalLabelPosition=bottom;labelPosition=center;align=center;html=1;outlineConnect=0;fillColor=#CCCCCC;strokeColor=#000000;gradientColor=none;gradientDirection=north;strokeWidth=2;shape=mxgraph.networks.monitor;" vertex="1" parent="1">
          <mxGeometry x="259.61" y="100" width="80" height="65" as="geometry" />
        </mxCell>
        <mxCell id="PICD6bbU7p97rax8BCYg-7" style="edgeStyle=orthogonalEdgeStyle;rounded=0;orthogonalLoop=1;jettySize=auto;html=1;entryX=0.5;entryY=0;entryDx=0;entryDy=0;exitX=0;exitY=0.5;exitDx=0;exitDy=0;endArrow=none;endFill=0;fontColor=#000000;" edge="1" parent="1" source="PICD6bbU7p97rax8BCYg-16" target="PICD6bbU7p97rax8BCYg-1">
          <mxGeometry relative="1" as="geometry">
            <Array as="points">
              <mxPoint x="140" y="220" />
              <mxPoint y="220" />
            </Array>
          </mxGeometry>
        </mxCell>
        <mxCell id="PICD6bbU7p97rax8BCYg-9" value="互联网" style="edgeLabel;html=1;align=center;verticalAlign=middle;resizable=0;points=[];fontColor=#000000;" vertex="1" connectable="0" parent="PICD6bbU7p97rax8BCYg-7">
          <mxGeometry x="0.0925" y="-1" relative="1" as="geometry">
            <mxPoint x="221" y="-9" as="offset" />
          </mxGeometry>
        </mxCell>
        <mxCell id="PICD6bbU7p97rax8BCYg-11" value="&lt;font style=&quot;font-size: 16px;&quot;&gt;中转服务器&lt;/font&gt;&lt;div&gt;（静默登录、数据同步）&lt;/div&gt;" style="rounded=1;whiteSpace=wrap;html=1;fontColor=#000000;" vertex="1" parent="1">
          <mxGeometry x="220" y="500" width="120" height="60" as="geometry" />
        </mxCell>
        <mxCell id="PICD6bbU7p97rax8BCYg-16" value="&lt;font style=&quot;font-size: 16px;&quot;&gt;防火墙&lt;/font&gt;&lt;div&gt;控制访问策略&lt;/div&gt;" style="image;aspect=fixed;perimeter=ellipsePerimeter;html=1;align=center;shadow=0;dashed=0;spacingTop=3;image=img/lib/active_directory/firewall.svg;fontColor=#000000;" vertex="1" parent="1">
          <mxGeometry x="140" y="192" width="30.5" height="50" as="geometry" />
        </mxCell>
        <mxCell id="PICD6bbU7p97rax8BCYg-17" style="edgeStyle=orthogonalEdgeStyle;rounded=0;orthogonalLoop=1;jettySize=auto;html=1;entryX=0.5;entryY=1;entryDx=0;entryDy=0;entryPerimeter=0;endArrow=none;endFill=0;fontColor=#000000;" edge="1" parent="1" source="PICD6bbU7p97rax8BCYg-16" target="PICD6bbU7p97rax8BCYg-4">
          <mxGeometry relative="1" as="geometry">
            <mxPoint x="189.99980184810863" y="220" as="sourcePoint" />
            <Array as="points">
              <mxPoint x="300" y="220" />
            </Array>
          </mxGeometry>
        </mxCell>
        <mxCell id="PICD6bbU7p97rax8BCYg-22" style="edgeStyle=orthogonalEdgeStyle;rounded=0;orthogonalLoop=1;jettySize=auto;html=1;endArrow=none;endFill=0;fontColor=#000000;" edge="1" parent="1" source="PICD6bbU7p97rax8BCYg-18" target="PICD6bbU7p97rax8BCYg-11">
          <mxGeometry relative="1" as="geometry" />
        </mxCell>
        <mxCell id="PICD6bbU7p97rax8BCYg-42" value="互联网" style="edgeLabel;html=1;align=center;verticalAlign=middle;resizable=0;points=[];" vertex="1" connectable="0" parent="PICD6bbU7p97rax8BCYg-22">
          <mxGeometry x="-0.1658" y="3" relative="1" as="geometry">
            <mxPoint as="offset" />
          </mxGeometry>
        </mxCell>
        <mxCell id="PICD6bbU7p97rax8BCYg-18" value="&lt;font style=&quot;font-size: 16px;&quot;&gt;防火墙&lt;/font&gt;&lt;div&gt;控制访问策略&lt;/div&gt;" style="image;aspect=fixed;perimeter=ellipsePerimeter;html=1;align=center;shadow=0;dashed=0;spacingTop=3;image=img/lib/active_directory/firewall.svg;fontColor=#000000;" vertex="1" parent="1">
          <mxGeometry x="90" y="505" width="30.5" height="50" as="geometry" />
        </mxCell>
        <mxCell id="PICD6bbU7p97rax8BCYg-25" value="数字文旅平台&lt;br&gt;（互联网）" style="rounded=1;whiteSpace=wrap;html=1;fontColor=#000000;" vertex="1" parent="1">
          <mxGeometry x="-60" y="1070" width="120" height="60" as="geometry" />
        </mxCell>
        <mxCell id="PICD6bbU7p97rax8BCYg-27" value="应急广播平台&lt;div&gt;（专网）&lt;/div&gt;" style="rounded=1;whiteSpace=wrap;html=1;fontColor=#000000;" vertex="1" parent="1">
          <mxGeometry x="490" y="1060" width="120" height="60" as="geometry" />
        </mxCell>
        <mxCell id="PICD6bbU7p97rax8BCYg-28" style="edgeStyle=orthogonalEdgeStyle;rounded=0;orthogonalLoop=1;jettySize=auto;html=1;entryX=0.5;entryY=0;entryDx=0;entryDy=0;endArrow=none;endFill=0;fontColor=#000000;" edge="1" parent="1" source="PICD6bbU7p97rax8BCYg-38" target="PICD6bbU7p97rax8BCYg-27">
          <mxGeometry relative="1" as="geometry">
            <Array as="points">
              <mxPoint x="280" y="940" />
              <mxPoint x="550" y="940" />
            </Array>
            <mxPoint x="301.5999999999999" y="885" as="sourcePoint" />
          </mxGeometry>
        </mxCell>
        <mxCell id="PICD6bbU7p97rax8BCYg-29" value="专网" style="edgeLabel;html=1;align=center;verticalAlign=middle;resizable=0;points=[];fontColor=#000000;" vertex="1" connectable="0" parent="PICD6bbU7p97rax8BCYg-28">
          <mxGeometry x="0.0579" relative="1" as="geometry">
            <mxPoint y="1" as="offset" />
          </mxGeometry>
        </mxCell>
        <mxCell id="PICD6bbU7p97rax8BCYg-31" style="edgeStyle=orthogonalEdgeStyle;rounded=0;orthogonalLoop=1;jettySize=auto;html=1;entryX=0.5;entryY=0;entryDx=0;entryDy=0;exitX=0;exitY=0.5;exitDx=0;exitDy=0;endArrow=none;endFill=0;fontColor=#000000;" edge="1" parent="1" source="PICD6bbU7p97rax8BCYg-34" target="PICD6bbU7p97rax8BCYg-25">
          <mxGeometry relative="1" as="geometry">
            <Array as="points">
              <mxPoint x="140" y="940" />
              <mxPoint y="940" />
            </Array>
          </mxGeometry>
        </mxCell>
        <mxCell id="PICD6bbU7p97rax8BCYg-32" value="互联网" style="edgeLabel;html=1;align=center;verticalAlign=middle;resizable=0;points=[];fontColor=#000000;" vertex="1" connectable="0" parent="PICD6bbU7p97rax8BCYg-31">
          <mxGeometry x="0.0925" y="-1" relative="1" as="geometry">
            <mxPoint y="57" as="offset" />
          </mxGeometry>
        </mxCell>
        <mxCell id="PICD6bbU7p97rax8BCYg-34" value="&lt;font style=&quot;font-size: 16px;&quot;&gt;防火墙&lt;/font&gt;&lt;div&gt;控制访问策略&lt;/div&gt;" style="image;aspect=fixed;perimeter=ellipsePerimeter;html=1;align=center;shadow=0;dashed=0;spacingTop=3;image=img/lib/active_directory/firewall.svg;fontColor=#000000;" vertex="1" parent="1">
          <mxGeometry x="140" y="912" width="30.5" height="50" as="geometry" />
        </mxCell>
        <mxCell id="PICD6bbU7p97rax8BCYg-35" style="edgeStyle=orthogonalEdgeStyle;rounded=0;orthogonalLoop=1;jettySize=auto;html=1;endArrow=none;endFill=0;fontColor=#000000;" edge="1" parent="1" source="PICD6bbU7p97rax8BCYg-34" target="PICD6bbU7p97rax8BCYg-38">
          <mxGeometry relative="1" as="geometry">
            <Array as="points">
              <mxPoint x="280" y="940" />
            </Array>
            <mxPoint x="280" y="885" as="targetPoint" />
          </mxGeometry>
        </mxCell>
        <mxCell id="PICD6bbU7p97rax8BCYg-38" value="&lt;font style=&quot;font-size: 16px;&quot;&gt;访问终端及中转服务器&lt;/font&gt;&lt;div&gt;&lt;span style=&quot;text-wrap: wrap;&quot;&gt;（静默登录、数据同步）&lt;/span&gt;&lt;br&gt;&lt;/div&gt;" style="fontColor=#000000;verticalAlign=top;verticalLabelPosition=bottom;labelPosition=center;align=center;html=1;outlineConnect=0;fillColor=#CCCCCC;strokeColor=#6881B3;gradientColor=none;gradientDirection=north;strokeWidth=2;shape=mxgraph.networks.pc;" vertex="1" parent="1">
          <mxGeometry x="230" y="790" width="100" height="70" as="geometry" />
        </mxCell>
        <mxCell id="PICD6bbU7p97rax8BCYg-43" value="&lt;font style=&quot;font-size: 30px;&quot;&gt;数字文旅平台&amp;amp;应急广播平台&lt;/font&gt;&lt;div&gt;&lt;font style=&quot;font-size: 30px;&quot;&gt;网络拓扑图&lt;/font&gt;&lt;/div&gt;" style="text;html=1;align=center;verticalAlign=middle;whiteSpace=wrap;rounded=0;" vertex="1" parent="1">
          <mxGeometry x="1.4210854715202004e-14" y="-160" width="620" height="90" as="geometry" />
        </mxCell>
        <mxCell id="PICD6bbU7p97rax8BCYg-44" value="方案一" style="text;html=1;align=center;verticalAlign=middle;whiteSpace=wrap;rounded=0;fontSize=28;" vertex="1" parent="1">
          <mxGeometry x="214.61" y="20" width="170" height="50" as="geometry" />
        </mxCell>
        <mxCell id="PICD6bbU7p97rax8BCYg-45" value="方案二" style="text;html=1;align=center;verticalAlign=middle;whiteSpace=wrap;rounded=0;fontSize=28;" vertex="1" parent="1">
          <mxGeometry x="190" y="700" width="180" height="40" as="geometry" />
        </mxCell>
        <mxCell id="PICD6bbU7p97rax8BCYg-46" value="用户" style="shape=umlActor;verticalLabelPosition=bottom;verticalAlign=top;html=1;outlineConnect=0;" vertex="1" parent="1">
          <mxGeometry x="-50" y="1538" width="30" height="60" as="geometry" />
        </mxCell>
        <mxCell id="PICD6bbU7p97rax8BCYg-57" style="edgeStyle=orthogonalEdgeStyle;rounded=0;orthogonalLoop=1;jettySize=auto;html=1;curved=0;" edge="1" parent="1">
          <mxGeometry relative="1" as="geometry">
            <mxPoint x="-30" y="1668" as="sourcePoint" />
            <mxPoint x="130" y="1668" as="targetPoint" />
          </mxGeometry>
        </mxCell>
        <mxCell id="PICD6bbU7p97rax8BCYg-58" value="1、打开浏览器登录" style="edgeLabel;html=1;align=center;verticalAlign=middle;resizable=0;points=[];" vertex="1" connectable="0" parent="PICD6bbU7p97rax8BCYg-57">
          <mxGeometry x="-0.1375" y="3" relative="1" as="geometry">
            <mxPoint as="offset" />
          </mxGeometry>
        </mxCell>
        <mxCell id="PICD6bbU7p97rax8BCYg-61" style="edgeStyle=orthogonalEdgeStyle;rounded=0;orthogonalLoop=1;jettySize=auto;html=1;curved=0;" edge="1" parent="1">
          <mxGeometry relative="1" as="geometry">
            <mxPoint x="-30" y="1708" as="sourcePoint" />
            <mxPoint x="130" y="1708" as="targetPoint" />
          </mxGeometry>
        </mxCell>
        <mxCell id="PICD6bbU7p97rax8BCYg-62" value="&amp;nbsp;2、点击“应急广播平台“" style="edgeLabel;html=1;align=center;verticalAlign=middle;resizable=0;points=[];" vertex="1" connectable="0" parent="PICD6bbU7p97rax8BCYg-61">
          <mxGeometry x="-0.3875" y="3" relative="1" as="geometry">
            <mxPoint x="31" as="offset" />
          </mxGeometry>
        </mxCell>
        <mxCell id="PICD6bbU7p97rax8BCYg-55" value="" style="html=1;points=[[0,0,0,0,5],[0,1,0,0,-5],[1,0,0,0,5],[1,1,0,0,-5]];perimeter=orthogonalPerimeter;outlineConnect=0;targetShapes=umlLifeline;portConstraint=eastwest;newEdgeStyle={&quot;curved&quot;:0,&quot;rounded&quot;:0};" vertex="1" parent="1">
          <mxGeometry x="-40" y="1648" width="10" height="110" as="geometry" />
        </mxCell>
        <mxCell id="PICD6bbU7p97rax8BCYg-66" style="edgeStyle=orthogonalEdgeStyle;rounded=0;orthogonalLoop=1;jettySize=auto;html=1;curved=0;" edge="1" parent="1" source="PICD6bbU7p97rax8BCYg-56" target="PICD6bbU7p97rax8BCYg-63">
          <mxGeometry relative="1" as="geometry">
            <Array as="points">
              <mxPoint x="440" y="1758" />
              <mxPoint x="440" y="1758" />
            </Array>
          </mxGeometry>
        </mxCell>
        <mxCell id="PICD6bbU7p97rax8BCYg-67" value="3、静默登录" style="edgeLabel;html=1;align=center;verticalAlign=middle;resizable=0;points=[];" vertex="1" connectable="0" parent="PICD6bbU7p97rax8BCYg-66">
          <mxGeometry x="-0.2" y="-1" relative="1" as="geometry">
            <mxPoint as="offset" />
          </mxGeometry>
        </mxCell>
        <mxCell id="PICD6bbU7p97rax8BCYg-84" style="edgeStyle=orthogonalEdgeStyle;rounded=0;orthogonalLoop=1;jettySize=auto;html=1;curved=0;" edge="1" parent="1" source="PICD6bbU7p97rax8BCYg-56" target="PICD6bbU7p97rax8BCYg-73">
          <mxGeometry relative="1" as="geometry">
            <Array as="points">
              <mxPoint x="570" y="2158" />
              <mxPoint x="570" y="2158" />
            </Array>
          </mxGeometry>
        </mxCell>
        <mxCell id="PICD6bbU7p97rax8BCYg-85" value="9、成功：跳转到应急广播平台" style="edgeLabel;html=1;align=center;verticalAlign=middle;resizable=0;points=[];" vertex="1" connectable="0" parent="PICD6bbU7p97rax8BCYg-84">
          <mxGeometry x="-0.0561" y="-1" relative="1" as="geometry">
            <mxPoint as="offset" />
          </mxGeometry>
        </mxCell>
        <mxCell id="PICD6bbU7p97rax8BCYg-56" value="" style="html=1;points=[[0,0,0,0,5],[0,1,0,0,-5],[1,0,0,0,5],[1,1,0,0,-5]];perimeter=orthogonalPerimeter;outlineConnect=0;targetShapes=umlLifeline;portConstraint=eastwest;newEdgeStyle={&quot;curved&quot;:0,&quot;rounded&quot;:0};" vertex="1" parent="1">
          <mxGeometry x="130" y="1648" width="10" height="570" as="geometry" />
        </mxCell>
        <mxCell id="PICD6bbU7p97rax8BCYg-69" style="edgeStyle=orthogonalEdgeStyle;rounded=0;orthogonalLoop=1;jettySize=auto;html=1;curved=0;" edge="1" parent="1" source="PICD6bbU7p97rax8BCYg-63" target="PICD6bbU7p97rax8BCYg-68">
          <mxGeometry relative="1" as="geometry">
            <mxPoint x="340" y="1848" as="targetPoint" />
            <Array as="points">
              <mxPoint x="380" y="1818" />
              <mxPoint x="380" y="1818" />
            </Array>
          </mxGeometry>
        </mxCell>
        <mxCell id="PICD6bbU7p97rax8BCYg-70" value="4、获取用户信息" style="edgeLabel;html=1;align=center;verticalAlign=middle;resizable=0;points=[];" vertex="1" connectable="0" parent="PICD6bbU7p97rax8BCYg-69">
          <mxGeometry x="0.1333" y="-1" relative="1" as="geometry">
            <mxPoint as="offset" />
          </mxGeometry>
        </mxCell>
        <mxCell id="PICD6bbU7p97rax8BCYg-74" style="edgeStyle=orthogonalEdgeStyle;rounded=0;orthogonalLoop=1;jettySize=auto;html=1;curved=0;" edge="1" parent="1" source="PICD6bbU7p97rax8BCYg-63" target="PICD6bbU7p97rax8BCYg-73">
          <mxGeometry relative="1" as="geometry">
            <Array as="points">
              <mxPoint x="670" y="1918" />
              <mxPoint x="670" y="1918" />
            </Array>
          </mxGeometry>
        </mxCell>
        <mxCell id="PICD6bbU7p97rax8BCYg-75" value="6、单点登录" style="edgeLabel;html=1;align=center;verticalAlign=middle;resizable=0;points=[];" vertex="1" connectable="0" parent="PICD6bbU7p97rax8BCYg-74">
          <mxGeometry x="-0.2947" y="-1" relative="1" as="geometry">
            <mxPoint x="23" y="-1" as="offset" />
          </mxGeometry>
        </mxCell>
        <mxCell id="PICD6bbU7p97rax8BCYg-78" style="edgeStyle=orthogonalEdgeStyle;rounded=0;orthogonalLoop=1;jettySize=auto;html=1;curved=0;dashed=1;" edge="1" parent="1" source="PICD6bbU7p97rax8BCYg-63" target="PICD6bbU7p97rax8BCYg-56">
          <mxGeometry relative="1" as="geometry">
            <Array as="points">
              <mxPoint x="390" y="2048" />
              <mxPoint x="390" y="2048" />
            </Array>
          </mxGeometry>
        </mxCell>
        <mxCell id="PICD6bbU7p97rax8BCYg-79" value="8、返回登录结果" style="edgeLabel;html=1;align=center;verticalAlign=middle;resizable=0;points=[];" vertex="1" connectable="0" parent="PICD6bbU7p97rax8BCYg-78">
          <mxGeometry x="0.2378" y="-2" relative="1" as="geometry">
            <mxPoint as="offset" />
          </mxGeometry>
        </mxCell>
        <mxCell id="PICD6bbU7p97rax8BCYg-63" value="" style="html=1;points=[[0,0,0,0,5],[0,1,0,0,-5],[1,0,0,0,5],[1,1,0,0,-5]];perimeter=orthogonalPerimeter;outlineConnect=0;targetShapes=umlLifeline;portConstraint=eastwest;newEdgeStyle={&quot;curved&quot;:0,&quot;rounded&quot;:0};" vertex="1" parent="1">
          <mxGeometry x="510" y="1728" width="10" height="390" as="geometry" />
        </mxCell>
        <mxCell id="PICD6bbU7p97rax8BCYg-71" style="edgeStyle=orthogonalEdgeStyle;rounded=0;orthogonalLoop=1;jettySize=auto;html=1;curved=0;" edge="1" parent="1" source="PICD6bbU7p97rax8BCYg-68" target="PICD6bbU7p97rax8BCYg-63">
          <mxGeometry relative="1" as="geometry">
            <Array as="points">
              <mxPoint x="380" y="1868" />
              <mxPoint x="380" y="1868" />
            </Array>
          </mxGeometry>
        </mxCell>
        <mxCell id="PICD6bbU7p97rax8BCYg-72" value="5、返回用户信息" style="edgeLabel;html=1;align=center;verticalAlign=middle;resizable=0;points=[];" vertex="1" connectable="0" parent="PICD6bbU7p97rax8BCYg-71">
          <mxGeometry x="-0.1" y="2" relative="1" as="geometry">
            <mxPoint as="offset" />
          </mxGeometry>
        </mxCell>
        <mxCell id="PICD6bbU7p97rax8BCYg-68" value="" style="html=1;points=[[0,0,0,0,5],[0,1,0,0,-5],[1,0,0,0,5],[1,1,0,0,-5]];perimeter=orthogonalPerimeter;outlineConnect=0;targetShapes=umlLifeline;portConstraint=eastwest;newEdgeStyle={&quot;curved&quot;:0,&quot;rounded&quot;:0};" vertex="1" parent="1">
          <mxGeometry x="320" y="1798" width="10" height="100" as="geometry" />
        </mxCell>
        <mxCell id="PICD6bbU7p97rax8BCYg-76" style="edgeStyle=orthogonalEdgeStyle;rounded=0;orthogonalLoop=1;jettySize=auto;html=1;curved=0;dashed=1;" edge="1" parent="1" source="PICD6bbU7p97rax8BCYg-73" target="PICD6bbU7p97rax8BCYg-63">
          <mxGeometry relative="1" as="geometry">
            <Array as="points">
              <mxPoint x="670" y="1988" />
              <mxPoint x="670" y="1988" />
            </Array>
          </mxGeometry>
        </mxCell>
        <mxCell id="PICD6bbU7p97rax8BCYg-77" value="7、返回登录结果" style="edgeLabel;html=1;align=center;verticalAlign=middle;resizable=0;points=[];" vertex="1" connectable="0" parent="PICD6bbU7p97rax8BCYg-76">
          <mxGeometry y="-1" relative="1" as="geometry">
            <mxPoint as="offset" />
          </mxGeometry>
        </mxCell>
        <mxCell id="PICD6bbU7p97rax8BCYg-73" value="" style="html=1;points=[[0,0,0,0,5],[0,1,0,0,-5],[1,0,0,0,5],[1,1,0,0,-5]];perimeter=orthogonalPerimeter;outlineConnect=0;targetShapes=umlLifeline;portConstraint=eastwest;newEdgeStyle={&quot;curved&quot;:0,&quot;rounded&quot;:0};" vertex="1" parent="1">
          <mxGeometry x="710" y="1888" width="10" height="320" as="geometry" />
        </mxCell>
        <mxCell id="PICD6bbU7p97rax8BCYg-86" value="数字文旅平台&amp;amp;应急广播平台&lt;div&gt;静默登录&lt;/div&gt;" style="text;html=1;align=center;verticalAlign=middle;whiteSpace=wrap;rounded=0;fontSize=28;" vertex="1" parent="1">
          <mxGeometry x="65" y="1400" width="500" height="70" as="geometry" />
        </mxCell>
        <mxCell id="PICD6bbU7p97rax8BCYg-87" value="应急广播平台" style="shape=umlLifeline;perimeter=lifelinePerimeter;whiteSpace=wrap;html=1;container=1;dropTarget=0;collapsible=0;recursiveResize=0;outlineConnect=0;portConstraint=eastwest;newEdgeStyle={&quot;curved&quot;:0,&quot;rounded&quot;:0};" vertex="1" parent="1">
          <mxGeometry x="465" y="2590" width="100" height="680" as="geometry" />
        </mxCell>
        <mxCell id="PICD6bbU7p97rax8BCYg-114" value="" style="html=1;points=[[0,0,0,0,5],[0,1,0,0,-5],[1,0,0,0,5],[1,1,0,0,-5]];perimeter=orthogonalPerimeter;outlineConnect=0;targetShapes=umlLifeline;portConstraint=eastwest;newEdgeStyle={&quot;curved&quot;:0,&quot;rounded&quot;:0};" vertex="1" parent="PICD6bbU7p97rax8BCYg-87">
          <mxGeometry x="45" y="70" width="10" height="100" as="geometry" />
        </mxCell>
        <mxCell id="PICD6bbU7p97rax8BCYg-88" value="中转服务" style="shape=umlLifeline;perimeter=lifelinePerimeter;whiteSpace=wrap;html=1;container=1;dropTarget=0;collapsible=0;recursiveResize=0;outlineConnect=0;portConstraint=eastwest;newEdgeStyle={&quot;curved&quot;:0,&quot;rounded&quot;:0};" vertex="1" parent="1">
          <mxGeometry x="265" y="2590" width="100" height="680" as="geometry" />
        </mxCell>
        <mxCell id="PICD6bbU7p97rax8BCYg-108" value="" style="html=1;points=[[0,0,0,0,5],[0,1,0,0,-5],[1,0,0,0,5],[1,1,0,0,-5]];perimeter=orthogonalPerimeter;outlineConnect=0;targetShapes=umlLifeline;portConstraint=eastwest;newEdgeStyle={&quot;curved&quot;:0,&quot;rounded&quot;:0};" vertex="1" parent="PICD6bbU7p97rax8BCYg-88">
          <mxGeometry x="45" y="70" width="10" height="270" as="geometry" />
        </mxCell>
        <mxCell id="PICD6bbU7p97rax8BCYg-89" value="数字文旅平台" style="shape=umlLifeline;perimeter=lifelinePerimeter;whiteSpace=wrap;html=1;container=1;dropTarget=0;collapsible=0;recursiveResize=0;outlineConnect=0;portConstraint=eastwest;newEdgeStyle={&quot;curved&quot;:0,&quot;rounded&quot;:0};" vertex="1" parent="1">
          <mxGeometry x="75" y="2590" width="100" height="680" as="geometry" />
        </mxCell>
        <mxCell id="PICD6bbU7p97rax8BCYg-111" value="" style="html=1;points=[[0,0,0,0,5],[0,1,0,0,-5],[1,0,0,0,5],[1,1,0,0,-5]];perimeter=orthogonalPerimeter;outlineConnect=0;targetShapes=umlLifeline;portConstraint=eastwest;newEdgeStyle={&quot;curved&quot;:0,&quot;rounded&quot;:0};" vertex="1" parent="PICD6bbU7p97rax8BCYg-89">
          <mxGeometry x="45.5" y="170" width="10" height="210" as="geometry" />
        </mxCell>
        <mxCell id="PICD6bbU7p97rax8BCYg-124" style="edgeStyle=orthogonalEdgeStyle;rounded=0;orthogonalLoop=1;jettySize=auto;html=1;curved=0;" edge="1" parent="PICD6bbU7p97rax8BCYg-89" source="PICD6bbU7p97rax8BCYg-111" target="PICD6bbU7p97rax8BCYg-111">
          <mxGeometry relative="1" as="geometry" />
        </mxCell>
        <mxCell id="PICD6bbU7p97rax8BCYg-115" value="数字文旅平台&amp;amp;应急广播平台&lt;div&gt;数据同步&lt;/div&gt;" style="text;html=1;align=center;verticalAlign=middle;whiteSpace=wrap;rounded=0;fontSize=28;" vertex="1" parent="1">
          <mxGeometry x="45" y="2420" width="500" height="70" as="geometry" />
        </mxCell>
        <mxCell id="PICD6bbU7p97rax8BCYg-116" style="edgeStyle=orthogonalEdgeStyle;rounded=0;orthogonalLoop=1;jettySize=auto;html=1;curved=0;" edge="1" parent="1" source="PICD6bbU7p97rax8BCYg-114" target="PICD6bbU7p97rax8BCYg-108">
          <mxGeometry relative="1" as="geometry">
            <Array as="points">
              <mxPoint x="420" y="2680" />
              <mxPoint x="420" y="2680" />
            </Array>
          </mxGeometry>
        </mxCell>
        <mxCell id="PICD6bbU7p97rax8BCYg-117" value="1、定时数据推送" style="edgeLabel;html=1;align=center;verticalAlign=middle;resizable=0;points=[];" vertex="1" connectable="0" parent="PICD6bbU7p97rax8BCYg-116">
          <mxGeometry x="-0.0105" relative="1" as="geometry">
            <mxPoint as="offset" />
          </mxGeometry>
        </mxCell>
        <mxCell id="PICD6bbU7p97rax8BCYg-118" style="edgeStyle=orthogonalEdgeStyle;rounded=0;orthogonalLoop=1;jettySize=auto;html=1;curved=0;dashed=1;" edge="1" parent="1">
          <mxGeometry relative="1" as="geometry">
            <mxPoint x="320" y="2730" as="sourcePoint" />
            <mxPoint x="510" y="2730" as="targetPoint" />
          </mxGeometry>
        </mxCell>
        <mxCell id="PICD6bbU7p97rax8BCYg-119" value="2、回执" style="edgeLabel;html=1;align=center;verticalAlign=middle;resizable=0;points=[];" vertex="1" connectable="0" parent="PICD6bbU7p97rax8BCYg-118">
          <mxGeometry x="-0.2526" y="1" relative="1" as="geometry">
            <mxPoint as="offset" />
          </mxGeometry>
        </mxCell>
        <mxCell id="PICD6bbU7p97rax8BCYg-120" style="edgeStyle=orthogonalEdgeStyle;rounded=0;orthogonalLoop=1;jettySize=auto;html=1;curved=0;" edge="1" parent="1" source="PICD6bbU7p97rax8BCYg-108" target="PICD6bbU7p97rax8BCYg-111">
          <mxGeometry relative="1" as="geometry">
            <Array as="points">
              <mxPoint x="180" y="2790" />
              <mxPoint x="180" y="2790" />
            </Array>
          </mxGeometry>
        </mxCell>
        <mxCell id="PICD6bbU7p97rax8BCYg-121" value="3、数据上报" style="edgeLabel;html=1;align=center;verticalAlign=middle;resizable=0;points=[];" vertex="1" connectable="0" parent="PICD6bbU7p97rax8BCYg-120">
          <mxGeometry x="0.0474" y="-2" relative="1" as="geometry">
            <mxPoint as="offset" />
          </mxGeometry>
        </mxCell>
        <mxCell id="PICD6bbU7p97rax8BCYg-122" style="edgeStyle=orthogonalEdgeStyle;rounded=0;orthogonalLoop=1;jettySize=auto;html=1;curved=0;entryX=0.2;entryY=0.756;entryDx=0;entryDy=0;entryPerimeter=0;dashed=1;" edge="1" parent="1" source="PICD6bbU7p97rax8BCYg-111" target="PICD6bbU7p97rax8BCYg-108">
          <mxGeometry relative="1" as="geometry" />
        </mxCell>
        <mxCell id="PICD6bbU7p97rax8BCYg-123" value="4、回执" style="edgeLabel;html=1;align=center;verticalAlign=middle;resizable=0;points=[];" vertex="1" connectable="0" parent="PICD6bbU7p97rax8BCYg-122">
          <mxGeometry x="-0.0844" y="-4" relative="1" as="geometry">
            <mxPoint x="-14" y="-9" as="offset" />
          </mxGeometry>
        </mxCell>
      </root>
    </mxGraphModel>
  </diagram>
</mxfile>
